<?xml version="1.0" standalone="no"?><!DOCTYPE svg PUBLIC "-//W3C//DTD SVG 1.1//EN" "http://www.w3.org/Graphics/SVG/1.1/DTD/svg11.dtd"><svg t="1595295207035" class="icon" viewBox="0 0 1024 1024" version="1.1" xmlns="http://www.w3.org/2000/svg" p-id="2275" xmlns:xlink="http://www.w3.org/1999/xlink" width="64" height="64"><defs><style type="text/css"></style></defs><path d="M809.09653333 892.83697778H220.3648c-3.82293333 0-7.64586667 0-10.92266667-0.54613333-50.7904-3.82293333-95.0272-35.49866667-118.51093333-84.10453334-30.03733333-62.80533333-12.56106667-139.264 41.50613333-187.32373333l77.55093334-68.26666667c11.4688-9.8304 28.39893333-8.73813333 38.77546666 2.73066667 9.8304 11.4688 8.73813333 28.39893333-2.73066666 38.77546667l-77.55093334 68.26666666c-36.0448 31.67573333-47.5136 81.92-28.39893333 122.88 15.29173333 31.67573333 42.05226667 51.33653333 73.18186667 53.52106667H816.19626667c31.67573333-2.18453333 58.43626667-21.84533333 73.18186666-53.52106667 19.6608-40.41386667 7.64586667-91.20426667-28.39893333-122.88l-72.0896-62.80533333c-11.4688-9.8304-12.56106667-27.30666667-2.73066667-38.77546667 9.8304-11.4688 27.30666667-12.56106667 38.77546667-2.73066666l72.0896 62.80533333c54.61333333 47.5136 71.54346667 124.5184 41.50613333 187.32373333-23.48373333 49.152-67.72053333 80.82773333-118.51093333 84.10453334-3.2768 0-7.09973333 0.54613333-10.92266667 0.54613333z" p-id="2276"></path><path d="M801.45066667 602.29404445c-15.29173333 0-27.30666667-12.01493333-27.30666667-27.30666667V413.33191111c0-73.18186667-27.8528-141.99466667-77.55093333-194.42346666-49.69813333-51.33653333-114.14186667-79.73546667-182.40853334-79.73546667-141.44853333 0-256.68266667 123.97226667-256.68266666 275.79733333l-2.18453334 155.648c0 14.7456-12.56106667 26.76053333-27.30666666 26.76053334h-0.54613334c-15.29173333 0-27.30666667-12.56106667-26.76053333-27.8528l1.6384-155.648c0-181.8624 139.81013333-330.41066667 311.296-330.41066667 83.01226667 0 162.2016 34.4064 222.27626667 96.6656 60.07466667 62.2592 92.84266667 144.72533333 92.84266666 232.10666667v161.65546666c0 15.83786667-12.01493333 28.39893333-27.30666666 28.39893334zM514.73066667 1009.70951111c-75.91253333 0-137.6256-61.71306667-137.6256-137.6256 0-15.29173333 12.01493333-27.30666667 27.30666666-27.30666666s27.30666667 12.01493333 27.30666667 27.30666666c0 45.8752 37.13706667 83.01226667 83.01226667 83.01226667 45.8752 0 83.01226667-37.13706667 83.01226666-83.01226667 0-15.29173333 12.01493333-27.30666667 27.30666667-27.30666666s27.30666667 12.01493333 27.30666667 27.30666666c0 75.91253333-61.71306667 137.6256-137.6256 137.6256z" p-id="2277"></path><path d="M573.16693333 123.88124445c-15.29173333 0-27.30666667-12.01493333-27.30666666-27.30666667 0-17.47626667-14.19946667-31.1296-31.1296-31.1296-17.47626667 0-31.1296 14.19946667-31.1296 31.1296 0 15.29173333-12.01493333 27.30666667-27.30666667 27.30666667s-27.30666667-12.01493333-27.30666667-27.30666667c0-47.5136 38.22933333-85.74293333 85.74293334-85.74293333s85.74293333 38.22933333 85.74293333 85.74293333c0 15.29173333-12.01493333 27.30666667-27.30666667 27.30666667z" p-id="2278"></path></svg>