<?xml version="1.0" standalone="no"?><!DOCTYPE svg PUBLIC "-//W3C//DTD SVG 1.1//EN" "http://www.w3.org/Graphics/SVG/1.1/DTD/svg11.dtd"><svg t="1595295233703" class="icon" viewBox="0 0 1024 1024" version="1.1" xmlns="http://www.w3.org/2000/svg" p-id="2682" xmlns:xlink="http://www.w3.org/1999/xlink" width="64" height="64"><defs><style type="text/css"></style></defs><path d="M622.93333333 667.3408L622.93333333 934.4C622.93333333 953.2416 638.22506666 968.53333334 657.06666666 968.53333334s34.13333333-15.29173333 34.13333333-34.13333334l0-192.7168 217.01973334 217.088c12.76586667 12.76586667 33.45066667 12.76586667 46.2848 0 12.76586667-12.83413333 12.76586667-33.51893333 0-46.2848L737.41653333 695.46666667 930.13333333 695.46666667c18.8416 0 34.13333333-15.29173333 34.13333333-34.13333333S948.97493333 627.2 930.13333333 627.2L663.07413333 627.2C638.15679999 627.2 622.93333333 640.03413334 622.93333333 667.3408z" p-id="2683"></path><path d="M358.77546666 627.2L91.71626666 627.2c-18.8416 0-34.13333333 15.29173333-34.13333333 34.13333334s15.29173333 34.13333333 34.13333333 34.13333333l192.7168 0-217.088 217.01973333c-12.76586667 12.76586667-12.76586667 33.45066667 0 46.2848 12.83413333 12.76586667 33.51893333 12.76586667 46.2848 0l217.01973334-217.088L330.6496 934.4c0 18.8416 15.29173333 34.13333333 34.13333333 34.13333334s34.13333333-15.29173333 34.13333333-34.13333334l0-267.0592C398.91626666 640.03413334 383.76106666 627.2 358.77546666 627.2z" p-id="2684"></path><path d="M663.07413333 401.06666667L930.13333333 401.06666667C948.97493333 401.06666667 964.26666666 385.77493334 964.26666666 366.93333334S948.97493333 332.80000001 930.13333333 332.80000001l-192.7168 0 217.088-217.01973334c12.76586667-12.76586667 12.76586667-33.45066667 0-46.2848-12.83413333-12.76586667-33.51893333-12.76586667-46.2848 0L691.19999999 286.58346667 691.19999999 93.86666667C691.19999999 75.02506667 675.90826666 59.73333334 657.06666666 59.73333334S622.93333333 75.02506667 622.93333333 93.86666667l0 267.0592C622.93333333 388.23253334 638.15679999 401.06666667 663.07413333 401.06666667z" p-id="2685"></path><path d="M398.91626666 360.92586667L398.91626666 93.86666667c0-18.8416-15.29173333-34.13333333-34.13333333-34.13333333s-34.13333333 15.29173333-34.13333333 34.13333333l0 192.7168-217.01973334-217.088c-12.76586667-12.76586667-33.45066667-12.76586667-46.2848 0-12.76586667 12.83413333-12.76586667 33.51893333 0 46.2848L284.43306666 332.80000001 91.71626666 332.80000001c-18.8416 0-34.13333333 15.29173333-34.13333333 34.13333333S72.87466666 401.06666667 91.71626666 401.06666667l267.0592 0C383.76106666 401.06666667 398.91626666 388.23253334 398.91626666 360.92586667z" p-id="2686"></path></svg>