<?xml version="1.0" standalone="no"?><!DOCTYPE svg PUBLIC "-//W3C//DTD SVG 1.1//EN" "http://www.w3.org/Graphics/SVG/1.1/DTD/svg11.dtd"><svg t="1595295244073" class="icon" viewBox="0 0 1024 1024" version="1.1" xmlns="http://www.w3.org/2000/svg" p-id="2822" xmlns:xlink="http://www.w3.org/1999/xlink" width="64" height="64"><defs><style type="text/css"></style></defs><path d="M664.035 388.04866667l244.223-243.378-0.837 137.922c-0.335 11.437 8.912 21.527 20.351 21.191h14.63c11.438-0.335 21.025-7.065 21.193-18.67l0.672-205.367c0-0.171 0.335-10.934 0.335-10.934 0.17-5.716-1.179-10.934-4.879-14.63-3.7-3.702-8.742-6.055-14.633-5.886l-10.428 0.171c-0.169 0-0.331 0-0.501 0.171l-203.69-0.846c-11.438 0.336-21.025 9.76-21.193 21.361v14.633c1.685 13.625 12.446 21.529 23.884 21.193l134.219 0.335-243.551 242.542c-11.101 11.104-11.101 29.095 0 40.197 11.104 11.269 29.101 11.269 40.203 0h-0.003M356.233 617.47266667l-244.393 242.544 0.842-137.253c0.336-11.435-8.918-21.523-20.355-21.193h-15.47c-11.438 0.335-21.025 7.065-21.193 18.672l-0.672 205.536c0 0.171-0.335 10.934-0.335 10.934-0.171 5.722 1.18 10.934 4.875 14.63 3.7 3.7 8.746 6.055 14.633 5.886l10.427-0.17c0.171 0 0.336 0 0.507-0.171l204.532 0.843c11.435-0.336 21.025-9.756 21.193-21.361v-14.63c-1.683-13.625-12.451-21.529-23.887-21.193l-134.222-0.335 243.38-242.539c11.104-11.104 11.104-29.101 0-40.203-10.929-11.268-28.757-11.268-39.857 0.001v0M964.271 925.77566667l-0.507-205.536c-0.336-11.438-9.76-18.335-21.194-18.672h-14.629c-11.439-0.331-20.521 9.759-20.356 21.193l0.843 137.927-244.393-243.214c-11.104-11.104-29.099-11.104-40.203 0-11.097 11.101-11.097 29.099 0 40.203l243.386 242.538-134.22 0.335c-11.438-0.335-22.034 7.739-23.887 21.193v14.633c0.335 11.437 9.76 21.025 21.193 21.361l203.69-0.843c0.17 0 0.335 0.17 0.507 0.17l10.428 0.171c5.716 0.17 10.934-2.016 14.63-5.886 3.698-3.7 5.042-8.912 4.875-14.63 0 0-0.169-10.764-0.169-10.934l0.004-0.002M152.885 105.31166667l134.22-0.335c11.435 0.335 22.031-7.739 23.883-21.193v-14.636c-0.336-11.437-9.753-21.025-21.193-21.36l-204.694 0.842c-0.17 0-0.336-0.171-0.509-0.171l-10.426-0.169c-5.722-0.17-10.934 2.015-14.633 5.885-3.698 3.7-5.05 8.912-4.875 14.633 0 0 0.335 10.763 0.335 10.933l0.502 205.536c0.171 11.435 9.759 18.335 21.193 18.667h15.475c11.437 0.335 20.519-9.753 20.349-21.191l-0.671-137.248 244.224 242.709c11.097 11.104 29.094 11.104 40.196 0 11.104-11.101 11.104-29.099 0-40.203l-243.38-242.703M152.885 105.31166667v0z" p-id="2823"></path></svg>