<?xml version="1.0" standalone="no"?><!DOCTYPE svg PUBLIC "-//W3C//DTD SVG 1.1//EN" "http://www.w3.org/Graphics/SVG/1.1/DTD/svg11.dtd"><svg t="1595295304292" class="icon" viewBox="0 0 1024 1024" version="1.1" xmlns="http://www.w3.org/2000/svg" p-id="1584" xmlns:xlink="http://www.w3.org/1999/xlink" width="64" height="64"><defs><style type="text/css"></style></defs><path d="M512 305.318a205.708 205.708 0 1 0 205.708 205.709A205.708 205.708 0 0 0 512 305.318z m0 346.2a140.816 140.816 0 1 1 140.816-140.816A140.816 140.816 0 0 1 512 651.842z" p-id="1585"></path><path d="M958.783 393.572L885.78 382.54a391.95 391.95 0 0 0-16.872-40.882l44.127-60.026a64.892 64.892 0 0 0 0-91.822l-77.222-77.87a64.892 64.892 0 0 0-91.822 0l-59.052 43.801a392.274 392.274 0 0 0-40.882-17.196L632.7 64.892A64.892 64.892 0 0 0 567.807 0H458.464a64.892 64.892 0 0 0-64.892 64.892l-11.032 72.68a392.598 392.598 0 0 0-40.882 16.872l-60.35-44.127a64.892 64.892 0 0 0-91.823 0l-77.546 77.546a64.892 64.892 0 0 0 0 91.823l44.127 60.025a392.274 392.274 0 0 0-16.548 39.909l-74.626 9.734A64.892 64.892 0 0 0 0 454.246v109.668a64.892 64.892 0 0 0 64.892 64.892l74.302 11.356a392.274 392.274 0 0 0 16.223 41.207l-45.1 60.999a64.892 64.892 0 0 0 0 91.822l77.546 77.546a64.892 64.892 0 0 0 91.823 0l60.674-44.775a392.598 392.598 0 0 0 39.26 16.547l11.356 75.6A64.892 64.892 0 0 0 455.868 1024h109.668a64.892 64.892 0 0 0 64.892-64.892l11.357-74.302a392.923 392.923 0 0 0 39.584-16.223l61.323 45.1a64.892 64.892 0 0 0 91.823 0l77.546-77.546a64.892 64.892 0 0 0 0-91.823l-44.127-60.025a392.274 392.274 0 0 0 16.872-39.909l74.626-11.356a64.892 64.892 0 0 0 64.892-64.892V458.464a64.892 64.892 0 0 0-65.54-64.892z m0 174.56h-9.734l-74.626 11.356-38.286 5.84-12.979 36.34a329.328 329.328 0 0 1-13.951 32.446L792.01 689.48l23.361 32.446 44.127 60.026 2.92 3.893 3.57 3.57-77.547 78.195-3.569-3.57-3.894-2.92-61.323-45.1-32.446-23.036-33.744 18.17a329.653 329.653 0 0 1-32.446 13.627l-36.989 12.978-6.489 38.287-11.356 74.301v9.734H455.868V949.05l-11.356-75.6-5.84-38.286-36.664-12.978a329.004 329.004 0 0 1-32.447-13.627l-35.366-16.872-32.446 23.036-60.674 44.776-3.894 2.92-3.569 3.57-77.546-77.547 3.569-3.569 2.596-3.894 45.424-61.323 23.037-32.446-16.872-35.042a329.328 329.328 0 0 1-13.627-32.446l-12.654-35.69-38.611-6.49-74.302-11.356h-9.734v-111.94h9.734l74.626-11.355 38.611-5.84 12.979-36.665a329.328 329.328 0 0 1 13.951-32.446l16.872-35.042-23.036-32.446-44.452-59.376-1.946-3.894-4.218-3.569 77.221-77.546 3.57 3.569 3.893 2.596 60.35 44.775 32.446 23.037 35.042-16.872a329.004 329.004 0 0 1 34.068-14.276l36.989-12.979 5.84-38.61 10.058-72.68v-9.734h110.317v9.734l11.356 73.653 4.867 38.286 36.665 12.979a329.004 329.004 0 0 1 34.392 14.276l35.367 17.196 32.446-23.36 59.376-43.479 4.218-1.946 3.57-3.57 77.546 77.547-3.57 3.569-2.92 3.893-44.45 59.377-23.038 32.446 17.521 33.744a328.68 328.68 0 0 1 13.952 34.068l12.654 36.989 38.936 5.84 73.003 11.032h9.734z" p-id="1586"></path></svg>