<?xml version="1.0" standalone="no"?><!DOCTYPE svg PUBLIC "-//W3C//DTD SVG 1.1//EN" "http://www.w3.org/Graphics/SVG/1.1/DTD/svg11.dtd"><svg t="1595295225319" class="icon" viewBox="0 0 1117 1024" version="1.1" xmlns="http://www.w3.org/2000/svg" p-id="2548" xmlns:xlink="http://www.w3.org/1999/xlink" width="69.8125" height="64"><defs><style type="text/css"></style></defs><path d="M428.78624201 601.50909131L1017.87715158 601.50909131a10.06363652 10.06363652 0 0 1 9.81818174 10.22727217l0 71.59090957c0 5.56363653-4.41818174 10.22727305-9.81818174 10.22727216l-589.09090957 0c-5.4 0-9.81818174-4.66363652-9.81818174-10.22727216l0-71.59090957a10.06363652 10.06363652 0 0 1 9.81818174-10.22727217z m-9.81818174-260.83636436a10.06363652 10.06363652 0 0 1 9.81818174-10.22727216L1017.87715158 330.44545479a10.06363652 10.06363652 0 0 1 9.81818174 10.22727216l0 71.59090957c0 5.64545478-4.41818174 10.22727305-9.81818174 10.22727217l-589.09090957 0c-5.4 0-9.81818174-4.58181826-9.81818174-10.22727217l0-71.59090957zM1037.51351506 962l-962.18181826 0c-5.4 0-9.81818174-4.58181826-9.81818174-10.22727305L65.51351506 880.18181826a10.06363652 10.06363652 0 0 1 9.81818174-10.22727305L1037.51351506 869.95454521A10.06363652 10.06363652 0 0 1 1047.33169679 880.18181826L1047.33169679 951.77272695C1047.33169679 957.41818174 1042.91351506 961.99999999 1037.51351506 962z m0-807.95454521l-962.18181826 0c-5.4 0-9.81818174-4.58181826-9.81818174-10.22727305l0-71.59090869a10.06363652 10.06363652 0 0 1 9.81818174-10.22727305L1037.51351506 62a10.06363652 10.06363652 0 0 1 9.81818173 10.22727305L1047.33169679 143.81818174c0 5.64545478-4.41818174 10.22727305-9.81818173 10.22727305z m-934.69090869 191.61818173L294.68624201 503.08181826a11.61818174 11.61818174 0 0 1 0 17.75454521l-191.86363564 157.50000001c-7.11818174 5.89090869-17.67272695 0.65454521-17.67272784-8.83636348l0-314.83636347c0-9.49090868 10.47272695-14.89090869 17.67272784-9.00000001z" p-id="2549"></path></svg>