<?xml version="1.0" standalone="no"?><!DOCTYPE svg PUBLIC "-//W3C//DTD SVG 1.1//EN" "http://www.w3.org/Graphics/SVG/1.1/DTD/svg11.dtd"><svg t="1595295340862" class="icon" viewBox="0 0 1024 1024" version="1.1" xmlns="http://www.w3.org/2000/svg" p-id="1041" xmlns:xlink="http://www.w3.org/1999/xlink" width="64" height="64"><defs><style type="text/css"></style></defs><path d="M512 284.4444448c25.03111147 0 45.51111147 20.48 45.51111147 45.5111104v182.0444448c0 25.03111147-20.48 45.51111147-45.51111147 45.51111147s-45.51111147-20.48-45.51111147-45.51111147V329.9555552c0-25.03111147 20.48-45.51111147 45.51111147-45.5111104z m-0.45511147-227.55555627C260.3235552 56.88888853 56.88888853 260.77866667 56.88888853 512s203.43466667 455.11111147 454.656 455.11111147C763.22133333 967.11111147 967.11111147 763.22133333 967.11111147 512S763.22133333 56.88888853 511.54488853 56.88888853zM512 876.08888853c-201.15911147 0-364.08888853-162.92977813-364.08888853-364.08888853s162.92977813-364.08888853 364.08888853-364.08888853 364.08888853 162.92977813 364.08888853 364.08888853-162.92977813 364.08888853-364.08888853 364.08888853z m45.51111147-136.53333333h-91.02222294v-91.02222187h91.02222294v91.02222187z" p-id="1042"></path></svg>